<svg version="1.1" viewBox="0 0 140 28" xmlns="http://www.w3.org/2000/svg">
 <path d="m13.697 3.3736c0.28936 2.321 0.02492 4.8033-2.1062 6.6547-0.87592 0.76083-1.8898 1.5883-2.9375 2.4797-0.38952 0.33792-3.7484 3.4005-2.4484 7.2921 0.71342-1.0885 1.6531-2.2228 2.8984-3.3328 1.9249-1.7528 4.4349-3.0727 5.5703-5.2078 2.3212-4.3653-0.97656-7.8859-0.97656-7.8859zm4.0984 6.3421c-0.57872 2.6041-1.4152 4.2925-2.3718 5.5047-0.91384 1.158-1.8395 2.0229-3.0203 3.0016v0.0016s-5.3359 4.5456-1.9297 8.272c-0.11418-0.15075-0.18772-0.34097-0.20782-0.57656-0.06605-0.77137 0.76803-2.2347 4.7765-5.2562 5.3101-4.0027 2.7531-10.947 2.7531-10.947z" fill="#8bd7ff"/>
 <path d="m9.8586 4.9e-5c-4.1851 4.2152-9.7145 9.4962-9.8586 15.961 0 1.4128 0.14833 2.706 0.42527 3.8789 0.8856 3.2888 3.4256 6.5181 3.5104 6.625 0.10042-3.1193 1.3412-5.3272 2.2056-6.6602-0.036481-0.11086-0.067183-0.22053-0.096657-0.33008-0.0092-0.034-0.018765-0.06776-0.027059-0.10156-0.019023-0.07664-0.034809-0.15444-0.050258-0.23047-0.00782-0.03712-0.01633-0.07447-0.023199-0.11133-0.014311-0.07704-0.025862-0.15235-0.036729-0.22852-0.00455-0.0312-0.0116-0.0628-0.015469-0.09375-0.013163-0.10378-0.023635-0.20851-0.030929-0.31055-0.00178-0.02616-5.473e-4 -0.05196-0.00198-0.07813-0.00455-0.07648-0.00812-0.15096-0.0097-0.22656-3.969e-4 -0.0412-9.9e-5 -0.08395 0-0.125 3.978e-4 -0.05984-1.455e-4 -0.11861 0.00198-0.17773 0.00158-0.04408 0.00495-0.08902 0.00772-0.13281 0.00337-0.0564 0.00851-0.11036 0.01353-0.16602 0.00406-0.0432 0.00495-0.08823 0.0097-0.13086 0.0099-0.08643 0.023704-0.17116 0.036729-0.25586 0.00891-0.05504 0.018696-0.10972 0.028999-0.16406 0.00693-0.03656 0.011887-0.07321 0.019329-0.10938 0.011877-0.05768 0.025208-0.11313 0.038659-0.16992 0.00673-0.02952 0.013965-0.06062 0.021259-0.08984 0.015163-0.06144 0.031305-0.12122 0.048328-0.18164 0.00287-0.01008 0.00455-0.02117 0.00772-0.03125 0.063234-0.2213 0.13812-0.43423 0.22037-0.64062 0.00139-4e-3 0.00247-8e-3 0.00386-0.01172v-2e-3c0.49209-1.2329 1.2689-2.1876 1.7803-2.7285 0.09827-0.10722 0.19264-0.19464 0.28609-0.28906-1.0361 0.79666-1.5994 1.4825-2.5265 2.6992-0.71954-1.524 0.35892-4.1497 1.3783-5.168 1.0739-1.1285 1.655-1.5486 2.6328-3.002 2.9181-4.3716 0-7.2168 0-7.2168zm111.52 6c-4.8613 0-7.2934 2.6518-7.2934 7.9551 0 2.7559 0.5831 4.7887 1.7475 6.0996 1.179 1.296 2.9906 1.9453 5.4358 1.9453 1.0916 0 2.1763-0.16445 3.2533-0.49219 1.077-0.32773 1.6141-0.78886 1.6141-1.3848 0-0.26814-0.13715-0.65755-0.41368-1.1641-0.27655-0.52138-0.56808-0.78125-0.87374-0.78125-0.0582 0-0.24619 0.07373-0.56639 0.22266-0.96062 0.4469-1.9656 0.67188-3.0136 0.67188-2.4888 0-3.7328-1.6842-3.7328-5.0508 0-3.3815 1.2592-5.0723 3.7772-5.0723 1.077 0 1.9939 0.17958 2.7508 0.53711 0.262 0.11916 0.41446 0.17969 0.45813 0.17969 0.26198 0 0.56024-0.26841 0.895-0.80469 0.34931-0.53628 0.52386-0.9692 0.52386-1.2969 0-0.44692-0.49484-0.82117-1.4846-1.1191-0.98971-0.29793-2.015-0.44531-3.0774-0.44531zm-53.47 0.11133c-0.87328 0-1.3106 0.24668-1.3106 0.73828v14.301c0 0.49159 0.43733 0.73633 1.3106 0.73633h0.76549c0.87328 0 1.3106-0.24474 1.3106-0.73633v-14.301c0-0.4916-0.43733-0.73828-1.3106-0.73828zm37.399 0c-0.8733 0-1.3106 0.24668-1.3106 0.73828v14.301c0 0.49159 0.43732 0.73633 1.3106 0.73633h0.76355c0.8733 0 1.3106-0.24474 1.3106-0.73633v-14.301c0-0.4916-0.43732-0.73828-1.3106-0.73828zm-82.764 0.023437c-0.87328 0-1.3106 0.23815-1.3106 0.71484v14.301c0 0.47669 0.43733 0.71484 1.3106 0.71484h0.63404c0.87328 0 1.3087-0.23815 1.3087-0.71484v-9.252l0.08699-0.02149 3.1664 5.7871c0.20377 0.28302 0.49532 0.42578 0.87374 0.42578h0.63211c0.37842 0 0.66998-0.14276 0.87374-0.42578l3.1664-5.7871 0.08699 0.02149v9.252c0 0.47669 0.43733 0.71484 1.3106 0.71484h0.63211c0.87328 0 1.3106-0.23815 1.3106-0.71484v-14.301c0-0.4767-0.43733-0.71484-1.3106-0.71484h-1.1347c-0.69863 0-1.158 0.20132-1.3763 0.60352l-3.8855 6.9922-3.8429-6.9922c-0.21833-0.4022-0.67772-0.60352-1.3763-0.60352zm51.59 0c-0.87328 0-1.3106 0.23815-1.3106 0.71484v9.7422c0 1.7131 0.55434 3.0465 1.6605 4 1.1062 0.9385 2.6637 1.4082 4.6722 1.4082 2.0085 0 3.566-0.46965 4.6722-1.4082 1.1062-0.9534 1.6586-2.2868 1.6586-4v-9.7422c0-0.4767-0.43733-0.71484-1.3106-0.71484h-0.7191c-0.87328 0-1.3106 0.23815-1.3106 0.71484v9.5195c0 0.78952-0.28485 1.4368-0.85248 1.9434-0.55308 0.50649-1.2647 0.75977-2.138 0.75977-0.87328 0-1.5868-0.25328-2.1399-0.75977-0.55308-0.5065-0.83122-1.1538-0.83122-1.9434v-9.5195c0-0.4767-0.4335-0.71484-1.3067-0.71484zm15.609 0c-0.8733 0-1.3106 0.23815-1.3106 0.71484v14.301c0 0.47669 0.43731 0.71484 1.3106 0.71484h0.63404c0.87327 0 1.3106-0.23815 1.3106-0.71484v-9.0508l5.8494 9.1621c0.26199 0.4022 0.74338 0.60352 1.4421 0.60352h0.82928c0.87329 0 1.3087-0.23815 1.3087-0.71484v-14.301c0-0.4767-0.43544-0.71484-1.3087-0.71484h-0.63404c-0.87329 0-1.3087 0.23815-1.3087 0.71484v8.9375l-5.7412-9.0488c-0.26198-0.4022-0.74339-0.60352-1.4421-0.60352zm43.011 0c-0.71316 0-1.1284 0.15593-1.2449 0.46875l-4.8017 14.367c-0.0582 0.20854-0.0889 0.34472-0.0889 0.4043 0 0.32773 0.44404 0.49024 1.3319 0.49024h0.87375c0.56762 0 0.90327-0.15593 1.0052-0.46875l0.87374-2.7266h5.1516l0.87374 2.7266c0.10188 0.31282 0.50852 0.46875 1.2217 0.46875h0.9588c0.72772 0 1.0922-0.1625 1.0922-0.49024 0-0.11918-0.0202-0.25534-0.0638-0.4043l-4.8056-14.367c-0.11644-0.31282-0.52978-0.46875-1.243-0.46875zm-92.24 0.044922c-0.58219 0-0.87374 0.29672-0.87374 0.89258v13.855c0 0.59587 0.29156 0.89258 0.87374 0.89258h8.0125c0.43665 0 0.65144-0.37235 0.65144-1.1172v-0.69141c0-0.74483-0.21479-1.1172-0.65144-1.1172h-5.5247v-3.6211h4.9119c0.43664 0 0.65531-0.3723 0.65531-1.1172v-0.69336c0-0.74483-0.21866-1.1172-0.65531-1.1172h-4.9119v-3.2383h5.4996c0.43665 0 0.65531-0.37425 0.65531-1.1191v-0.69141c1e-6 -0.74482-0.21866-1.1172-0.65531-1.1172zm11.917 0c-0.58219 0-0.87374 0.29672-0.87374 0.89258v13.855c1e-6 0.59587 0.29156 0.89258 0.87374 0.89258h4.8906c2.256 0 3.9794-0.66906 5.1729-2.0098 1.208-1.3556 1.8113-3.2931 1.8113-5.8105 0-2.5176-0.60328-4.4464-1.8113-5.7871-1.1935-1.3556-2.917-2.0332-5.1729-2.0332zm2.5091 2.9277h2.3815c1.1644 0 2.0438 0.4158 2.6406 1.25 0.59675 0.83422 0.89501 2.0486 0.89501 3.6426 0 1.5939-0.29826 2.8085-0.89501 3.6426-0.59675 0.83422-1.4762 1.252-2.6406 1.252h-2.3815zm78.312 1.2051h0.087l0.32862 1.4297 1.2449 3.9785h-3.2746l1.2894-3.9785c0.0874-0.25325 0.19377-0.72954 0.32476-1.4297zm-120.97 7.9141c-0.80896 0.67743-1.7391 1.4089-2.8725 2.332-2.8453 2.3354-3.1548 5.3138-3.062 6.9805 0.94158 0.30221 1.9441 0.46094 2.9846 0.46094 1.9015 0 3.6765-0.51366 5.1825-1.5078 0.40383-0.29714 0.69274-0.51399 0.75583-0.56055 0.0049-4e-3 0.0056-0.0043 0.0077-0.0059-1.1083 0.68003-3.7905 1.554-4.7592 0.72656l-2e-3 2e-3c-0.0039-4e-3 -0.0076-0.0096-0.0116-0.01367-0.04907-0.04336-0.09391-0.08802-0.13338-0.14062-3.371-3.7264 1.9099-8.2734 1.9099-8.2734zm98.29 0.15234c-0.87327 0-1.3068 0.23815-1.3068 0.71484v2.0566c0 0.47669 0.43351 0.71484 1.3068 0.71484h0.70169c0.8733 0 1.3087-0.23815 1.3087-0.71484v-2.0566c0-0.47669-0.43539-0.71484-1.3087-0.71484z" fill="#1c75bc"/>
</svg>
